<mxfile host="app.diagrams.net" modified="2021-12-04T11:33:46.921Z" agent="5.0 (Windows NT 10.0; Win64; x64) AppleWebKit/537.36 (KHTML, like Gecko) Chrome/96.0.4664.45 Safari/537.36" etag="26iBo286g7_165crvzeN" version="15.9.1" type="github" pages="2">
  <diagram id="O8EpYFw3rZ--6N9qffrQ" name="Dashboard">
    <mxGraphModel dx="782" dy="468" grid="1" gridSize="10" guides="1" tooltips="1" connect="1" arrows="1" fold="1" page="1" pageScale="1" pageWidth="850" pageHeight="1100" math="0" shadow="0">
      <root>
        <mxCell id="0" />
        <mxCell id="1" parent="0" />
        <mxCell id="cic22Dj9srT_6ZPVpuq2-1" value="" style="strokeWidth=1;shadow=0;dashed=0;align=center;html=1;shape=mxgraph.mockup.containers.browserWindow;rSize=0;strokeColor=#666666;strokeColor2=#008cff;strokeColor3=#c4c4c4;mainText=,;recursiveResize=0;" parent="1" vertex="1">
          <mxGeometry x="60" y="70" width="720" height="800" as="geometry" />
        </mxCell>
        <mxCell id="cic22Dj9srT_6ZPVpuq2-2" value="&lt;font style=&quot;font-size: 12px&quot;&gt;Bucher Hydraulics&lt;/font&gt;" style="strokeWidth=1;shadow=0;dashed=0;align=center;html=1;shape=mxgraph.mockup.containers.anchor;fontSize=17;fontColor=#666666;align=left;" parent="cic22Dj9srT_6ZPVpuq2-1" vertex="1">
          <mxGeometry x="60" y="12" width="110" height="26" as="geometry" />
        </mxCell>
        <mxCell id="cic22Dj9srT_6ZPVpuq2-3" value="&lt;font style=&quot;font-size: 12px&quot;&gt;testing-bhdl.bucherhydraulics.com/secure/dashboard&lt;/font&gt;" style="strokeWidth=1;shadow=0;dashed=0;align=center;html=1;shape=mxgraph.mockup.containers.anchor;rSize=0;fontSize=17;fontColor=#666666;align=left;" parent="cic22Dj9srT_6ZPVpuq2-1" vertex="1">
          <mxGeometry x="130" y="60" width="250" height="26" as="geometry" />
        </mxCell>
        <mxCell id="cic22Dj9srT_6ZPVpuq2-19" value="" style="rounded=0;whiteSpace=wrap;html=1;fontSize=12;" parent="cic22Dj9srT_6ZPVpuq2-1" vertex="1">
          <mxGeometry x="15" y="120" width="685" height="50" as="geometry" />
        </mxCell>
        <mxCell id="cic22Dj9srT_6ZPVpuq2-20" value="Logo" style="text;html=1;strokeColor=none;fillColor=none;align=center;verticalAlign=middle;whiteSpace=wrap;rounded=0;fontSize=12;" parent="cic22Dj9srT_6ZPVpuq2-1" vertex="1">
          <mxGeometry x="45" y="130" width="60" height="30" as="geometry" />
        </mxCell>
        <mxCell id="cic22Dj9srT_6ZPVpuq2-22" value="Benches &amp;amp; Recipes" style="text;html=1;strokeColor=none;fillColor=none;align=center;verticalAlign=middle;whiteSpace=wrap;rounded=0;fontSize=12;" parent="cic22Dj9srT_6ZPVpuq2-1" vertex="1">
          <mxGeometry x="425" y="130" width="60" height="30" as="geometry" />
        </mxCell>
        <mxCell id="cic22Dj9srT_6ZPVpuq2-23" value="Users &amp;amp; Permissions" style="text;html=1;strokeColor=none;fillColor=none;align=center;verticalAlign=middle;whiteSpace=wrap;rounded=0;fontSize=12;" parent="cic22Dj9srT_6ZPVpuq2-1" vertex="1">
          <mxGeometry x="515" y="130" width="60" height="30" as="geometry" />
        </mxCell>
        <mxCell id="cic22Dj9srT_6ZPVpuq2-24" value="LogOut" style="text;html=1;strokeColor=none;fillColor=none;align=center;verticalAlign=middle;whiteSpace=wrap;rounded=0;fontSize=12;" parent="cic22Dj9srT_6ZPVpuq2-1" vertex="1">
          <mxGeometry x="605" y="130" width="60" height="30" as="geometry" />
        </mxCell>
        <mxCell id="cic22Dj9srT_6ZPVpuq2-25" value="" style="rounded=0;whiteSpace=wrap;html=1;fontSize=12;" parent="cic22Dj9srT_6ZPVpuq2-1" vertex="1">
          <mxGeometry x="25" y="170" width="665" height="40" as="geometry" />
        </mxCell>
        <mxCell id="cic22Dj9srT_6ZPVpuq2-26" value="TestBench : All&amp;nbsp;" style="text;html=1;strokeColor=none;fillColor=none;align=center;verticalAlign=middle;whiteSpace=wrap;rounded=0;fontSize=12;" parent="cic22Dj9srT_6ZPVpuq2-1" vertex="1">
          <mxGeometry x="55" y="180" width="100" height="30" as="geometry" />
        </mxCell>
        <mxCell id="cic22Dj9srT_6ZPVpuq2-27" value="FormDate:" style="text;html=1;strokeColor=none;fillColor=none;align=center;verticalAlign=middle;whiteSpace=wrap;rounded=0;fontSize=12;" parent="cic22Dj9srT_6ZPVpuq2-1" vertex="1">
          <mxGeometry x="215" y="180" width="60" height="30" as="geometry" />
        </mxCell>
        <mxCell id="cic22Dj9srT_6ZPVpuq2-28" value="ToData:" style="text;html=1;strokeColor=none;fillColor=none;align=center;verticalAlign=middle;whiteSpace=wrap;rounded=0;fontSize=12;" parent="cic22Dj9srT_6ZPVpuq2-1" vertex="1">
          <mxGeometry x="335" y="180" width="60" height="30" as="geometry" />
        </mxCell>
        <mxCell id="cic22Dj9srT_6ZPVpuq2-29" value="Work Order" style="text;html=1;strokeColor=none;fillColor=none;align=center;verticalAlign=middle;whiteSpace=wrap;rounded=0;fontSize=12;" parent="cic22Dj9srT_6ZPVpuq2-1" vertex="1">
          <mxGeometry x="440" y="180" width="75" height="30" as="geometry" />
        </mxCell>
        <mxCell id="cic22Dj9srT_6ZPVpuq2-30" value="" style="rounded=0;whiteSpace=wrap;html=1;fontSize=12;" parent="cic22Dj9srT_6ZPVpuq2-1" vertex="1">
          <mxGeometry x="515" y="185" width="75" height="20" as="geometry" />
        </mxCell>
        <mxCell id="cic22Dj9srT_6ZPVpuq2-31" value="Submit" style="text;html=1;strokeColor=none;fillColor=none;align=center;verticalAlign=middle;whiteSpace=wrap;rounded=0;fontSize=12;" parent="cic22Dj9srT_6ZPVpuq2-1" vertex="1">
          <mxGeometry x="605" y="180" width="60" height="30" as="geometry" />
        </mxCell>
        <mxCell id="cic22Dj9srT_6ZPVpuq2-32" value="" style="whiteSpace=wrap;html=1;aspect=fixed;fontSize=12;" parent="cic22Dj9srT_6ZPVpuq2-1" vertex="1">
          <mxGeometry x="65" y="270" width="220" height="220" as="geometry" />
        </mxCell>
        <mxCell id="cic22Dj9srT_6ZPVpuq2-33" value="" style="ellipse;whiteSpace=wrap;html=1;aspect=fixed;fontSize=12;" parent="cic22Dj9srT_6ZPVpuq2-1" vertex="1">
          <mxGeometry x="85" y="290" width="180" height="180" as="geometry" />
        </mxCell>
        <mxCell id="cic22Dj9srT_6ZPVpuq2-34" value="" style="ellipse;whiteSpace=wrap;html=1;aspect=fixed;fontSize=12;" parent="cic22Dj9srT_6ZPVpuq2-1" vertex="1">
          <mxGeometry x="130" y="335" width="90" height="90" as="geometry" />
        </mxCell>
        <mxCell id="cic22Dj9srT_6ZPVpuq2-35" value="" style="endArrow=none;html=1;rounded=0;fontSize=12;entryX=0.5;entryY=0;entryDx=0;entryDy=0;exitX=0.5;exitY=0;exitDx=0;exitDy=0;" parent="cic22Dj9srT_6ZPVpuq2-1" source="cic22Dj9srT_6ZPVpuq2-34" target="cic22Dj9srT_6ZPVpuq2-33" edge="1">
          <mxGeometry width="50" height="50" relative="1" as="geometry">
            <mxPoint x="170" y="320" as="sourcePoint" />
            <mxPoint x="220" y="270" as="targetPoint" />
          </mxGeometry>
        </mxCell>
        <mxCell id="cic22Dj9srT_6ZPVpuq2-36" value="" style="rounded=0;whiteSpace=wrap;html=1;fontSize=12;" parent="cic22Dj9srT_6ZPVpuq2-1" vertex="1">
          <mxGeometry x="65" y="230" width="225" height="40" as="geometry" />
        </mxCell>
        <mxCell id="cic22Dj9srT_6ZPVpuq2-37" value="WorkOrderEfficiency" style="text;html=1;strokeColor=none;fillColor=none;align=center;verticalAlign=middle;whiteSpace=wrap;rounded=0;fontSize=12;" parent="cic22Dj9srT_6ZPVpuq2-1" vertex="1">
          <mxGeometry x="110" y="235" width="60" height="30" as="geometry" />
        </mxCell>
        <mxCell id="cic22Dj9srT_6ZPVpuq2-38" value="FYP-0%" style="text;html=1;strokeColor=none;fillColor=none;align=center;verticalAlign=middle;whiteSpace=wrap;rounded=0;fontSize=12;" parent="cic22Dj9srT_6ZPVpuq2-1" vertex="1">
          <mxGeometry x="145" y="365" width="60" height="30" as="geometry" />
        </mxCell>
        <mxCell id="cic22Dj9srT_6ZPVpuq2-39" value="" style="verticalLabelPosition=bottom;shadow=0;dashed=0;align=center;html=1;verticalAlign=top;strokeWidth=1;shape=mxgraph.mockup.graphics.simpleIcon;strokeColor=#999999;fontSize=12;" parent="cic22Dj9srT_6ZPVpuq2-1" vertex="1">
          <mxGeometry x="320" y="230" width="370" height="260" as="geometry" />
        </mxCell>
        <mxCell id="cic22Dj9srT_6ZPVpuq2-40" value="" style="verticalLabelPosition=bottom;shadow=0;dashed=0;align=center;html=1;verticalAlign=top;strokeWidth=1;shape=mxgraph.mockup.graphics.simpleIcon;strokeColor=#999999;fontSize=12;" parent="cic22Dj9srT_6ZPVpuq2-1" vertex="1">
          <mxGeometry x="65" y="540" width="315" height="200" as="geometry" />
        </mxCell>
        <mxCell id="cic22Dj9srT_6ZPVpuq2-41" value="" style="verticalLabelPosition=bottom;shadow=0;dashed=0;align=center;html=1;verticalAlign=top;strokeWidth=1;shape=mxgraph.mockup.graphics.simpleIcon;strokeColor=#999999;fontSize=12;" parent="cic22Dj9srT_6ZPVpuq2-1" vertex="1">
          <mxGeometry x="400" y="540" width="290" height="200" as="geometry" />
        </mxCell>
      </root>
    </mxGraphModel>
  </diagram>
  <diagram id="v-jUwFbYudRmf1iTcTH4" name="TestBench">
    <mxGraphModel dx="782" dy="468" grid="1" gridSize="10" guides="1" tooltips="1" connect="1" arrows="1" fold="1" page="1" pageScale="1" pageWidth="850" pageHeight="1100" math="0" shadow="0">
      <root>
        <mxCell id="4gf48k-oTG0G1874HPD_-0" />
        <mxCell id="4gf48k-oTG0G1874HPD_-1" parent="4gf48k-oTG0G1874HPD_-0" />
        <mxCell id="3KryXg6arc2fx8vRO8xh-0" value="" style="strokeWidth=1;shadow=0;dashed=0;align=center;html=1;shape=mxgraph.mockup.containers.browserWindow;rSize=0;strokeColor=#666666;strokeColor2=#008cff;strokeColor3=#c4c4c4;mainText=,;recursiveResize=0;" vertex="1" parent="4gf48k-oTG0G1874HPD_-1">
          <mxGeometry x="10" y="100" width="720" height="980" as="geometry" />
        </mxCell>
        <mxCell id="3KryXg6arc2fx8vRO8xh-1" value="&lt;font style=&quot;font-size: 12px&quot;&gt;Bucher Hydraulics&lt;/font&gt;" style="strokeWidth=1;shadow=0;dashed=0;align=center;html=1;shape=mxgraph.mockup.containers.anchor;fontSize=17;fontColor=#666666;align=left;" vertex="1" parent="3KryXg6arc2fx8vRO8xh-0">
          <mxGeometry x="60" y="12" width="110" height="26" as="geometry" />
        </mxCell>
        <mxCell id="3KryXg6arc2fx8vRO8xh-2" value="&lt;span style=&quot;font-size: 12px&quot;&gt;testing-bhdl.bucherhydraulics.com/secure/test-benches/list&lt;/span&gt;" style="strokeWidth=1;shadow=0;dashed=0;align=center;html=1;shape=mxgraph.mockup.containers.anchor;rSize=0;fontSize=17;fontColor=#666666;align=left;" vertex="1" parent="3KryXg6arc2fx8vRO8xh-0">
          <mxGeometry x="130" y="60" width="330" height="26" as="geometry" />
        </mxCell>
        <mxCell id="OtisQ_GrQDjx_ZsXLLg7-1" value="" style="rounded=0;whiteSpace=wrap;html=1;fontSize=12;" vertex="1" parent="3KryXg6arc2fx8vRO8xh-0">
          <mxGeometry x="20" y="120" width="680" height="60" as="geometry" />
        </mxCell>
        <mxCell id="OtisQ_GrQDjx_ZsXLLg7-2" value="&lt;font style=&quot;font-size: 10px&quot;&gt;Manage Test Benches&lt;/font&gt;" style="text;html=1;strokeColor=none;fillColor=none;align=center;verticalAlign=middle;whiteSpace=wrap;rounded=0;fontSize=12;" vertex="1" parent="3KryXg6arc2fx8vRO8xh-0">
          <mxGeometry x="20" y="120" width="120" height="30" as="geometry" />
        </mxCell>
        <mxCell id="OtisQ_GrQDjx_ZsXLLg7-3" value="" style="rounded=1;whiteSpace=wrap;html=1;fontSize=10;" vertex="1" parent="3KryXg6arc2fx8vRO8xh-0">
          <mxGeometry x="140" y="125" width="100" height="20" as="geometry" />
        </mxCell>
        <mxCell id="OtisQ_GrQDjx_ZsXLLg7-4" value="+ New Test Bench" style="text;html=1;strokeColor=none;fillColor=none;align=center;verticalAlign=middle;whiteSpace=wrap;rounded=0;fontSize=10;" vertex="1" parent="3KryXg6arc2fx8vRO8xh-0">
          <mxGeometry x="140" y="120" width="100" height="30" as="geometry" />
        </mxCell>
        <mxCell id="OtisQ_GrQDjx_ZsXLLg7-5" value="Dashboard &amp;gt; TestBenches" style="text;html=1;strokeColor=none;fillColor=none;align=center;verticalAlign=middle;whiteSpace=wrap;rounded=0;fontSize=10;" vertex="1" parent="3KryXg6arc2fx8vRO8xh-0">
          <mxGeometry x="30" y="160" width="130" height="20" as="geometry" />
        </mxCell>
        <mxCell id="OtisQ_GrQDjx_ZsXLLg7-7" value="" style="rounded=0;whiteSpace=wrap;html=1;fontSize=10;" vertex="1" parent="3KryXg6arc2fx8vRO8xh-0">
          <mxGeometry x="20" y="200" width="680" height="200" as="geometry" />
        </mxCell>
        <mxCell id="OtisQ_GrQDjx_ZsXLLg7-8" value="" style="rounded=1;whiteSpace=wrap;html=1;fontSize=10;" vertex="1" parent="3KryXg6arc2fx8vRO8xh-0">
          <mxGeometry x="40" y="210" width="430" height="30" as="geometry" />
        </mxCell>
        <mxCell id="OtisQ_GrQDjx_ZsXLLg7-9" value="Search..." style="text;html=1;strokeColor=none;fillColor=none;align=center;verticalAlign=middle;whiteSpace=wrap;rounded=0;fontSize=10;" vertex="1" parent="3KryXg6arc2fx8vRO8xh-0">
          <mxGeometry x="50" y="210" width="60" height="30" as="geometry" />
        </mxCell>
        <mxCell id="OtisQ_GrQDjx_ZsXLLg7-10" value="" style="rounded=1;whiteSpace=wrap;html=1;fontSize=10;" vertex="1" parent="3KryXg6arc2fx8vRO8xh-0">
          <mxGeometry x="480" y="210" width="110" height="30" as="geometry" />
        </mxCell>
        <mxCell id="OtisQ_GrQDjx_ZsXLLg7-11" value="10 PerPages" style="text;html=1;strokeColor=none;fillColor=none;align=center;verticalAlign=middle;whiteSpace=wrap;rounded=0;fontSize=10;" vertex="1" parent="3KryXg6arc2fx8vRO8xh-0">
          <mxGeometry x="500" y="210" width="70" height="30" as="geometry" />
        </mxCell>
        <mxCell id="OtisQ_GrQDjx_ZsXLLg7-13" value="" style="verticalLabelPosition=bottom;verticalAlign=top;html=1;shape=mxgraph.basic.patternFillRect;fillStyle=diag;step=5;fillStrokeWidth=0.2;fillStrokeColor=#dddddd;fontSize=10;" vertex="1" parent="3KryXg6arc2fx8vRO8xh-0">
          <mxGeometry x="580" y="210" width="100" height="30" as="geometry" />
        </mxCell>
        <mxCell id="OtisQ_GrQDjx_ZsXLLg7-15" value="Filter" style="text;html=1;strokeColor=none;fillColor=none;align=center;verticalAlign=middle;whiteSpace=wrap;rounded=0;fontSize=10;" vertex="1" parent="3KryXg6arc2fx8vRO8xh-0">
          <mxGeometry x="600" y="210" width="60" height="30" as="geometry" />
        </mxCell>
        <mxCell id="OtisQ_GrQDjx_ZsXLLg7-88" value="" style="shape=table;startSize=0;container=1;collapsible=0;childLayout=tableLayout;fontSize=10;fontColor=#000000;fillColor=#FFFFFF;" vertex="1" parent="3KryXg6arc2fx8vRO8xh-0">
          <mxGeometry x="140" y="410" width="120" height="160" as="geometry" />
        </mxCell>
        <mxCell id="OtisQ_GrQDjx_ZsXLLg7-89" value="" style="shape=partialRectangle;collapsible=0;dropTarget=0;pointerEvents=0;fillColor=none;top=0;left=0;bottom=0;right=0;points=[[0,0.5],[1,0.5]];portConstraint=eastwest;fontSize=10;fontColor=#FFFFFF;" vertex="1" parent="OtisQ_GrQDjx_ZsXLLg7-88">
          <mxGeometry width="120" height="40" as="geometry" />
        </mxCell>
        <mxCell id="OtisQ_GrQDjx_ZsXLLg7-90" value="Name" style="shape=partialRectangle;html=1;whiteSpace=wrap;connectable=0;overflow=hidden;fillColor=none;top=0;left=0;bottom=0;right=0;pointerEvents=1;fontSize=10;fontColor=#FFFFFF;" vertex="1" parent="OtisQ_GrQDjx_ZsXLLg7-89">
          <mxGeometry width="60" height="40" as="geometry">
            <mxRectangle width="60" height="40" as="alternateBounds" />
          </mxGeometry>
        </mxCell>
        <mxCell id="OtisQ_GrQDjx_ZsXLLg7-91" value="" style="shape=partialRectangle;html=1;whiteSpace=wrap;connectable=0;overflow=hidden;fillColor=none;top=0;left=0;bottom=0;right=0;pointerEvents=1;fontSize=10;fontColor=#FFFFFF;" vertex="1" parent="OtisQ_GrQDjx_ZsXLLg7-89">
          <mxGeometry x="60" width="60" height="40" as="geometry">
            <mxRectangle width="60" height="40" as="alternateBounds" />
          </mxGeometry>
        </mxCell>
        <mxCell id="OtisQ_GrQDjx_ZsXLLg7-92" value="" style="shape=partialRectangle;collapsible=0;dropTarget=0;pointerEvents=0;fillColor=none;top=0;left=0;bottom=0;right=0;points=[[0,0.5],[1,0.5]];portConstraint=eastwest;fontSize=10;fontColor=#FFFFFF;" vertex="1" parent="OtisQ_GrQDjx_ZsXLLg7-88">
          <mxGeometry y="40" width="120" height="40" as="geometry" />
        </mxCell>
        <mxCell id="OtisQ_GrQDjx_ZsXLLg7-93" value="" style="shape=partialRectangle;html=1;whiteSpace=wrap;connectable=0;overflow=hidden;fillColor=none;top=0;left=0;bottom=0;right=0;pointerEvents=1;fontSize=10;fontColor=#FFFFFF;" vertex="1" parent="OtisQ_GrQDjx_ZsXLLg7-92">
          <mxGeometry width="60" height="40" as="geometry">
            <mxRectangle width="60" height="40" as="alternateBounds" />
          </mxGeometry>
        </mxCell>
        <mxCell id="OtisQ_GrQDjx_ZsXLLg7-94" value="" style="shape=partialRectangle;html=1;whiteSpace=wrap;connectable=0;overflow=hidden;fillColor=none;top=0;left=0;bottom=0;right=0;pointerEvents=1;fontSize=10;fontColor=#FFFFFF;" vertex="1" parent="OtisQ_GrQDjx_ZsXLLg7-92">
          <mxGeometry x="60" width="60" height="40" as="geometry">
            <mxRectangle width="60" height="40" as="alternateBounds" />
          </mxGeometry>
        </mxCell>
        <mxCell id="OtisQ_GrQDjx_ZsXLLg7-95" value="" style="shape=partialRectangle;collapsible=0;dropTarget=0;pointerEvents=0;fillColor=none;top=0;left=0;bottom=0;right=0;points=[[0,0.5],[1,0.5]];portConstraint=eastwest;fontSize=10;fontColor=#FFFFFF;" vertex="1" parent="OtisQ_GrQDjx_ZsXLLg7-88">
          <mxGeometry y="80" width="120" height="40" as="geometry" />
        </mxCell>
        <mxCell id="OtisQ_GrQDjx_ZsXLLg7-96" value="" style="shape=partialRectangle;html=1;whiteSpace=wrap;connectable=0;overflow=hidden;fillColor=none;top=0;left=0;bottom=0;right=0;pointerEvents=1;fontSize=10;fontColor=#FFFFFF;" vertex="1" parent="OtisQ_GrQDjx_ZsXLLg7-95">
          <mxGeometry width="60" height="40" as="geometry">
            <mxRectangle width="60" height="40" as="alternateBounds" />
          </mxGeometry>
        </mxCell>
        <mxCell id="OtisQ_GrQDjx_ZsXLLg7-97" value="" style="shape=partialRectangle;html=1;whiteSpace=wrap;connectable=0;overflow=hidden;fillColor=none;top=0;left=0;bottom=0;right=0;pointerEvents=1;fontSize=10;fontColor=#FFFFFF;" vertex="1" parent="OtisQ_GrQDjx_ZsXLLg7-95">
          <mxGeometry x="60" width="60" height="40" as="geometry">
            <mxRectangle width="60" height="40" as="alternateBounds" />
          </mxGeometry>
        </mxCell>
        <mxCell id="OtisQ_GrQDjx_ZsXLLg7-98" value="" style="shape=partialRectangle;collapsible=0;dropTarget=0;pointerEvents=0;fillColor=none;top=0;left=0;bottom=0;right=0;points=[[0,0.5],[1,0.5]];portConstraint=eastwest;fontSize=10;fontColor=#FFFFFF;" vertex="1" parent="OtisQ_GrQDjx_ZsXLLg7-88">
          <mxGeometry y="120" width="120" height="40" as="geometry" />
        </mxCell>
        <mxCell id="OtisQ_GrQDjx_ZsXLLg7-99" value="" style="shape=partialRectangle;html=1;whiteSpace=wrap;connectable=0;overflow=hidden;fillColor=none;top=0;left=0;bottom=0;right=0;pointerEvents=1;fontSize=10;fontColor=#FFFFFF;" vertex="1" parent="OtisQ_GrQDjx_ZsXLLg7-98">
          <mxGeometry width="60" height="40" as="geometry">
            <mxRectangle width="60" height="40" as="alternateBounds" />
          </mxGeometry>
        </mxCell>
        <mxCell id="OtisQ_GrQDjx_ZsXLLg7-100" value="" style="shape=partialRectangle;html=1;whiteSpace=wrap;connectable=0;overflow=hidden;fillColor=none;top=0;left=0;bottom=0;right=0;pointerEvents=1;fontSize=10;fontColor=#FFFFFF;" vertex="1" parent="OtisQ_GrQDjx_ZsXLLg7-98">
          <mxGeometry x="60" width="60" height="40" as="geometry">
            <mxRectangle width="60" height="40" as="alternateBounds" />
          </mxGeometry>
        </mxCell>
        <mxCell id="OtisQ_GrQDjx_ZsXLLg7-101" value="Name" style="text;html=1;strokeColor=none;fillColor=none;align=center;verticalAlign=middle;whiteSpace=wrap;rounded=0;fontSize=10;fontColor=#000000;" vertex="1" parent="3KryXg6arc2fx8vRO8xh-0">
          <mxGeometry x="140" y="420" width="60" height="30" as="geometry" />
        </mxCell>
        <mxCell id="OtisQ_GrQDjx_ZsXLLg7-102" value="Status" style="text;html=1;strokeColor=none;fillColor=none;align=center;verticalAlign=middle;whiteSpace=wrap;rounded=0;fontSize=10;fontColor=#000000;" vertex="1" parent="3KryXg6arc2fx8vRO8xh-0">
          <mxGeometry x="140" y="455" width="60" height="30" as="geometry" />
        </mxCell>
        <mxCell id="OtisQ_GrQDjx_ZsXLLg7-103" value="Created At" style="text;html=1;strokeColor=none;fillColor=none;align=center;verticalAlign=middle;whiteSpace=wrap;rounded=0;fontSize=10;fontColor=#000000;" vertex="1" parent="3KryXg6arc2fx8vRO8xh-0">
          <mxGeometry x="140" y="500" width="60" height="30" as="geometry" />
        </mxCell>
        <mxCell id="OtisQ_GrQDjx_ZsXLLg7-104" value="Updated At" style="text;html=1;strokeColor=none;fillColor=none;align=center;verticalAlign=middle;whiteSpace=wrap;rounded=0;fontSize=10;fontColor=#000000;" vertex="1" parent="3KryXg6arc2fx8vRO8xh-0">
          <mxGeometry x="140" y="530" width="60" height="30" as="geometry" />
        </mxCell>
        <mxCell id="OtisQ_GrQDjx_ZsXLLg7-106" value="" style="ellipse;whiteSpace=wrap;html=1;fontSize=10;fontColor=#000000;fillColor=#FFFFFF;" vertex="1" parent="3KryXg6arc2fx8vRO8xh-0">
          <mxGeometry x="360" y="410" width="80" height="40" as="geometry" />
        </mxCell>
        <mxCell id="OtisQ_GrQDjx_ZsXLLg7-107" value="Details" style="text;html=1;strokeColor=none;fillColor=none;align=center;verticalAlign=middle;whiteSpace=wrap;rounded=0;fontSize=10;fontColor=#000000;" vertex="1" parent="3KryXg6arc2fx8vRO8xh-0">
          <mxGeometry x="370" y="415" width="60" height="30" as="geometry" />
        </mxCell>
        <mxCell id="OtisQ_GrQDjx_ZsXLLg7-108" style="edgeStyle=orthogonalEdgeStyle;rounded=0;orthogonalLoop=1;jettySize=auto;html=1;exitX=1;exitY=0.5;exitDx=0;exitDy=0;entryX=0;entryY=0.5;entryDx=0;entryDy=0;fontSize=10;fontColor=#000000;" edge="1" parent="3KryXg6arc2fx8vRO8xh-0" source="OtisQ_GrQDjx_ZsXLLg7-89" target="OtisQ_GrQDjx_ZsXLLg7-106">
          <mxGeometry relative="1" as="geometry" />
        </mxCell>
        <mxCell id="OtisQ_GrQDjx_ZsXLLg7-118" style="edgeStyle=orthogonalEdgeStyle;rounded=0;orthogonalLoop=1;jettySize=auto;html=1;exitX=0.75;exitY=0;exitDx=0;exitDy=0;entryX=0.5;entryY=1;entryDx=0;entryDy=0;fontSize=10;fontColor=#000000;" edge="1" parent="3KryXg6arc2fx8vRO8xh-0" source="OtisQ_GrQDjx_ZsXLLg7-111" target="OtisQ_GrQDjx_ZsXLLg7-116">
          <mxGeometry relative="1" as="geometry" />
        </mxCell>
        <mxCell id="OtisQ_GrQDjx_ZsXLLg7-111" value="" style="rounded=0;whiteSpace=wrap;html=1;fontSize=10;fontColor=#000000;fillColor=#FFFFFF;" vertex="1" parent="3KryXg6arc2fx8vRO8xh-0">
          <mxGeometry x="100" y="620" width="240" height="230" as="geometry" />
        </mxCell>
        <mxCell id="OtisQ_GrQDjx_ZsXLLg7-112" value="Name" style="text;html=1;strokeColor=none;fillColor=none;align=center;verticalAlign=middle;whiteSpace=wrap;rounded=0;fontSize=10;fontColor=#000000;" vertex="1" parent="3KryXg6arc2fx8vRO8xh-0">
          <mxGeometry x="130" y="640" width="60" height="30" as="geometry" />
        </mxCell>
        <mxCell id="OtisQ_GrQDjx_ZsXLLg7-113" value="" style="rounded=1;whiteSpace=wrap;html=1;fontSize=10;fontColor=#000000;fillColor=#FFFFFF;" vertex="1" parent="3KryXg6arc2fx8vRO8xh-0">
          <mxGeometry x="130" y="670" width="120" height="30" as="geometry" />
        </mxCell>
        <mxCell id="OtisQ_GrQDjx_ZsXLLg7-114" value="Status" style="text;html=1;strokeColor=none;fillColor=none;align=center;verticalAlign=middle;whiteSpace=wrap;rounded=0;fontSize=10;fontColor=#000000;" vertex="1" parent="3KryXg6arc2fx8vRO8xh-0">
          <mxGeometry x="130" y="710" width="60" height="30" as="geometry" />
        </mxCell>
        <mxCell id="OtisQ_GrQDjx_ZsXLLg7-115" value="" style="rounded=1;whiteSpace=wrap;html=1;fontSize=10;fontColor=#000000;fillColor=#FFFFFF;" vertex="1" parent="3KryXg6arc2fx8vRO8xh-0">
          <mxGeometry x="130" y="740" width="120" height="40" as="geometry" />
        </mxCell>
        <mxCell id="OtisQ_GrQDjx_ZsXLLg7-116" value="" style="ellipse;whiteSpace=wrap;html=1;fontSize=10;fontColor=#000000;fillColor=#FFFFFF;" vertex="1" parent="3KryXg6arc2fx8vRO8xh-0">
          <mxGeometry x="420" y="490" width="90" height="50" as="geometry" />
        </mxCell>
        <mxCell id="OtisQ_GrQDjx_ZsXLLg7-117" value="Edit" style="text;html=1;strokeColor=none;fillColor=none;align=center;verticalAlign=middle;whiteSpace=wrap;rounded=0;fontSize=10;fontColor=#000000;" vertex="1" parent="3KryXg6arc2fx8vRO8xh-0">
          <mxGeometry x="435" y="500" width="60" height="30" as="geometry" />
        </mxCell>
        <mxCell id="OtisQ_GrQDjx_ZsXLLg7-57" value="" style="shape=table;startSize=0;container=1;collapsible=0;childLayout=tableLayout;fontSize=10;" vertex="1" parent="4gf48k-oTG0G1874HPD_-1">
          <mxGeometry x="85" y="330" width="630" height="100" as="geometry" />
        </mxCell>
        <mxCell id="OtisQ_GrQDjx_ZsXLLg7-58" value="" style="shape=partialRectangle;collapsible=0;dropTarget=0;pointerEvents=0;fillColor=none;top=0;left=0;bottom=0;right=0;points=[[0,0.5],[1,0.5]];portConstraint=eastwest;fontSize=10;" vertex="1" parent="OtisQ_GrQDjx_ZsXLLg7-57">
          <mxGeometry width="630" height="50" as="geometry" />
        </mxCell>
        <mxCell id="OtisQ_GrQDjx_ZsXLLg7-59" value="Sr.No." style="shape=partialRectangle;html=1;whiteSpace=wrap;connectable=0;overflow=hidden;fillColor=none;top=0;left=0;bottom=0;right=0;pointerEvents=1;fontSize=10;" vertex="1" parent="OtisQ_GrQDjx_ZsXLLg7-58">
          <mxGeometry width="65" height="50" as="geometry">
            <mxRectangle width="65" height="50" as="alternateBounds" />
          </mxGeometry>
        </mxCell>
        <mxCell id="OtisQ_GrQDjx_ZsXLLg7-60" value="Name" style="shape=partialRectangle;html=1;whiteSpace=wrap;connectable=0;overflow=hidden;fillColor=none;top=0;left=0;bottom=0;right=0;pointerEvents=1;fontSize=10;" vertex="1" parent="OtisQ_GrQDjx_ZsXLLg7-58">
          <mxGeometry x="65" width="100" height="50" as="geometry">
            <mxRectangle width="100" height="50" as="alternateBounds" />
          </mxGeometry>
        </mxCell>
        <mxCell id="OtisQ_GrQDjx_ZsXLLg7-61" value="Status" style="shape=partialRectangle;html=1;whiteSpace=wrap;connectable=0;overflow=hidden;fillColor=none;top=0;left=0;bottom=0;right=0;pointerEvents=1;fontSize=10;" vertex="1" parent="OtisQ_GrQDjx_ZsXLLg7-58">
          <mxGeometry x="165" width="110" height="50" as="geometry">
            <mxRectangle width="110" height="50" as="alternateBounds" />
          </mxGeometry>
        </mxCell>
        <mxCell id="OtisQ_GrQDjx_ZsXLLg7-62" value="Created At" style="shape=partialRectangle;html=1;whiteSpace=wrap;connectable=0;overflow=hidden;fillColor=none;top=0;left=0;bottom=0;right=0;pointerEvents=1;fontSize=10;" vertex="1" parent="OtisQ_GrQDjx_ZsXLLg7-58">
          <mxGeometry x="275" width="110" height="50" as="geometry">
            <mxRectangle width="110" height="50" as="alternateBounds" />
          </mxGeometry>
        </mxCell>
        <mxCell id="OtisQ_GrQDjx_ZsXLLg7-63" value="Updated At" style="shape=partialRectangle;html=1;whiteSpace=wrap;connectable=0;overflow=hidden;fillColor=none;top=0;left=0;bottom=0;right=0;pointerEvents=1;fontSize=10;" vertex="1" parent="OtisQ_GrQDjx_ZsXLLg7-58">
          <mxGeometry x="385" width="100" height="50" as="geometry">
            <mxRectangle width="100" height="50" as="alternateBounds" />
          </mxGeometry>
        </mxCell>
        <mxCell id="OtisQ_GrQDjx_ZsXLLg7-64" value="" style="shape=partialRectangle;html=1;whiteSpace=wrap;connectable=0;overflow=hidden;fillColor=none;top=0;left=0;bottom=0;right=0;pointerEvents=1;fontSize=10;" vertex="1" parent="OtisQ_GrQDjx_ZsXLLg7-58">
          <mxGeometry x="485" width="145" height="50" as="geometry">
            <mxRectangle width="145" height="50" as="alternateBounds" />
          </mxGeometry>
        </mxCell>
        <mxCell id="OtisQ_GrQDjx_ZsXLLg7-65" value="" style="shape=partialRectangle;collapsible=0;dropTarget=0;pointerEvents=0;fillColor=none;top=0;left=0;bottom=0;right=0;points=[[0,0.5],[1,0.5]];portConstraint=eastwest;fontSize=10;" vertex="1" parent="OtisQ_GrQDjx_ZsXLLg7-57">
          <mxGeometry y="50" width="630" height="50" as="geometry" />
        </mxCell>
        <mxCell id="OtisQ_GrQDjx_ZsXLLg7-66" value="" style="shape=partialRectangle;html=1;whiteSpace=wrap;connectable=0;overflow=hidden;fillColor=none;top=0;left=0;bottom=0;right=0;pointerEvents=1;fontSize=10;" vertex="1" parent="OtisQ_GrQDjx_ZsXLLg7-65">
          <mxGeometry width="65" height="50" as="geometry">
            <mxRectangle width="65" height="50" as="alternateBounds" />
          </mxGeometry>
        </mxCell>
        <mxCell id="OtisQ_GrQDjx_ZsXLLg7-67" value="" style="shape=partialRectangle;html=1;whiteSpace=wrap;connectable=0;overflow=hidden;fillColor=none;top=0;left=0;bottom=0;right=0;pointerEvents=1;fontSize=10;" vertex="1" parent="OtisQ_GrQDjx_ZsXLLg7-65">
          <mxGeometry x="65" width="100" height="50" as="geometry">
            <mxRectangle width="100" height="50" as="alternateBounds" />
          </mxGeometry>
        </mxCell>
        <mxCell id="OtisQ_GrQDjx_ZsXLLg7-68" value="" style="shape=partialRectangle;html=1;whiteSpace=wrap;connectable=0;overflow=hidden;fillColor=none;top=0;left=0;bottom=0;right=0;pointerEvents=1;fontSize=10;" vertex="1" parent="OtisQ_GrQDjx_ZsXLLg7-65">
          <mxGeometry x="165" width="110" height="50" as="geometry">
            <mxRectangle width="110" height="50" as="alternateBounds" />
          </mxGeometry>
        </mxCell>
        <mxCell id="OtisQ_GrQDjx_ZsXLLg7-69" value="" style="shape=partialRectangle;html=1;whiteSpace=wrap;connectable=0;overflow=hidden;fillColor=none;top=0;left=0;bottom=0;right=0;pointerEvents=1;fontSize=10;" vertex="1" parent="OtisQ_GrQDjx_ZsXLLg7-65">
          <mxGeometry x="275" width="110" height="50" as="geometry">
            <mxRectangle width="110" height="50" as="alternateBounds" />
          </mxGeometry>
        </mxCell>
        <mxCell id="OtisQ_GrQDjx_ZsXLLg7-70" value="" style="shape=partialRectangle;html=1;whiteSpace=wrap;connectable=0;overflow=hidden;fillColor=none;top=0;left=0;bottom=0;right=0;pointerEvents=1;fontSize=10;" vertex="1" parent="OtisQ_GrQDjx_ZsXLLg7-65">
          <mxGeometry x="385" width="100" height="50" as="geometry">
            <mxRectangle width="100" height="50" as="alternateBounds" />
          </mxGeometry>
        </mxCell>
        <mxCell id="OtisQ_GrQDjx_ZsXLLg7-71" value="" style="shape=partialRectangle;html=1;whiteSpace=wrap;connectable=0;overflow=hidden;fillColor=none;top=0;left=0;bottom=0;right=0;pointerEvents=1;fontSize=10;" vertex="1" parent="OtisQ_GrQDjx_ZsXLLg7-65">
          <mxGeometry x="485" width="145" height="50" as="geometry">
            <mxRectangle width="145" height="50" as="alternateBounds" />
          </mxGeometry>
        </mxCell>
        <mxCell id="OtisQ_GrQDjx_ZsXLLg7-81" value="" style="rounded=1;whiteSpace=wrap;html=1;fontSize=10;fillColor=#000000;" vertex="1" parent="4gf48k-oTG0G1874HPD_-1">
          <mxGeometry x="590" y="390" width="100" height="30" as="geometry" />
        </mxCell>
        <mxCell id="OtisQ_GrQDjx_ZsXLLg7-82" style="edgeStyle=orthogonalEdgeStyle;rounded=0;orthogonalLoop=1;jettySize=auto;html=1;exitX=0.5;exitY=1;exitDx=0;exitDy=0;fontSize=10;" edge="1" parent="4gf48k-oTG0G1874HPD_-1" source="OtisQ_GrQDjx_ZsXLLg7-81" target="OtisQ_GrQDjx_ZsXLLg7-81">
          <mxGeometry relative="1" as="geometry" />
        </mxCell>
        <mxCell id="OtisQ_GrQDjx_ZsXLLg7-86" value="Actions" style="text;html=1;strokeColor=none;fillColor=none;align=center;verticalAlign=middle;whiteSpace=wrap;rounded=0;fontSize=10;fontColor=#FFFFFF;" vertex="1" parent="4gf48k-oTG0G1874HPD_-1">
          <mxGeometry x="610" y="390" width="70" height="30" as="geometry" />
        </mxCell>
        <mxCell id="OtisQ_GrQDjx_ZsXLLg7-109" style="edgeStyle=orthogonalEdgeStyle;rounded=0;orthogonalLoop=1;jettySize=auto;html=1;exitX=1;exitY=0;exitDx=0;exitDy=0;entryX=0;entryY=1;entryDx=0;entryDy=0;fontSize=10;fontColor=#000000;" edge="1" parent="4gf48k-oTG0G1874HPD_-1" source="OtisQ_GrQDjx_ZsXLLg7-106" target="OtisQ_GrQDjx_ZsXLLg7-81">
          <mxGeometry relative="1" as="geometry" />
        </mxCell>
        <mxCell id="OtisQ_GrQDjx_ZsXLLg7-119" style="edgeStyle=orthogonalEdgeStyle;rounded=0;orthogonalLoop=1;jettySize=auto;html=1;exitX=0.5;exitY=0;exitDx=0;exitDy=0;entryX=0.5;entryY=1;entryDx=0;entryDy=0;fontSize=10;fontColor=#000000;" edge="1" parent="4gf48k-oTG0G1874HPD_-1" source="OtisQ_GrQDjx_ZsXLLg7-116" target="OtisQ_GrQDjx_ZsXLLg7-86">
          <mxGeometry relative="1" as="geometry">
            <Array as="points">
              <mxPoint x="475" y="550" />
              <mxPoint x="620" y="550" />
              <mxPoint x="620" y="420" />
            </Array>
          </mxGeometry>
        </mxCell>
      </root>
    </mxGraphModel>
  </diagram>
</mxfile>
